<svg xmlns="http://www.w3.org/2000/svg" width="512" height="512"><path d="M373.9 157.78c-.92-.12-4.5-.71-8-1.3-6.18-1.06-20.12-3.12-27-4-4.29-.57-5.62-.95-6.13-1.73-.37-.56 3.29-62 3.85-64.75.21-1 4.22-6.31 19.4-25.91 10.53-13.58 19.37-24.85 19.65-25 .67-.44 2.31.42 4 2.09a8.17 8.17 0 002 1.56c1 .3 8.28 11.42 8.91 13.57.31 1 1.08 3 1.73 4.56 3.47 8.35 4.62 17.8 3.41 28-.57 4.78-3.41 17.15-6 25.89-5.34 18.24-7.89 27.55-11.51 41.67-1.28 5.21-1.67 5.71-4.31 5.35zm-51.24-22.28c-2.16.12-18.05-2.46-25-4.08-12.6-2.88-21.22-7.33-28.95-14.9-2.85-2.79-3-3-8.51-11.67L254.55 96l-.65-2.78c-1.94-8.14-1.43-15.8 1.5-22.67 2-4.76 3.2-6.52 8.59-12.88 2.17-2.57 8.14-6.5 11-7.25 1.1-.28 2.88-.8 4-1.15 7.72-2.46 16.94-2 26 1.23 1.35.48 2.56.74 2.63.53a16.8 16.8 0 00.3-2.68c.5-8.77 4.15-18 9.54-24.14 1.15-1.31 2.33-2.76 2.58-3.16s2.11-1.86 5.15-3.83c5-3.28 5.71-3.52 6.56-2.23.26.39 0 6.87-.68 17.89-.6 9.47-2.28 35.74-3.69 58.35s-2.73 41.68-2.83 42.39c-.26 1.38-.7 1.81-1.9 1.87zm16.16-67.55c-.17 0-.49-.32-.69-.63-.37-.64 2.76-52.47 3.29-54.17.37-1.16 2.06-2.06 5.82-3A35.35 35.35 0 01374.62 14c2.74 1.62 3.85 2.78 3.57 3.76-.23.63-38.09 49.65-38.68 50a1 1 0 01-.7.18zM511.88 227c-.33-.28-1.6-1.4-2.82-2.5-2.17-2-7.15-6.24-9.64-8.32-1.55-1.29-2-1.77-2-2.21s16.75-23.59 17.66-24.54c.32-.33 3.24-1.43 14.1-5.37 7.54-2.72 13.83-5 14-5 .38 0 .81.74 1.07 1.83a3.81 3.81 0 00.39 1.11c.3.36.41 6.56.13 7.57-.12.46-.33 1.46-.46 2.23a25.78 25.78 0 01-5.64 11.88 104.22 104.22 0 01-8.81 8.71c-6.65 5.85-10 8.88-14.92 13.54-1.83 1.74-2.11 1.84-3.06 1.07zm-14.63-21.56a103.16 103.16 0 01-8.84-7.85c-4.25-4.28-6.53-8.18-7.69-13.09-.43-1.81-.43-1.93-.44-6.72v-4.86l.44-1.26a16.64 16.64 0 016.24-8.56c2-1.37 2.89-1.77 6.59-2.93a14.3 14.3 0 016.15-.11c.5.17 1.33.41 1.85.54a19.08 19.08 0 019.93 7c.41.53.82.93.9.86a7.83 7.83 0 00.79-1 19.42 19.42 0 019.78-7.13c.78-.23 1.6-.5 1.81-.6a12.16 12.16 0 013-.23c2.8 0 3.13 0 3.14.76a71.47 71.47 0 01-4.73 6.88c-2.6 3.58-9.81 13.51-16 22.07s-11.47 15.74-11.69 16c-.48.41-.74.48-1.23.2zm23.21-22.58a.69.69 0 01-.11-.42c0-.34 14.17-20 14.8-20.52.43-.37 1.33-.3 3 .27a16.48 16.48 0 019.83 8.34c.67 1.32.82 2.05.47 2.37s-27.39 10.06-27.71 10.06a.44.44 0 01-.28-.12zM-.12 226.59c-.33-.28-1.6-1.4-2.82-2.5-2.17-2-7.15-6.24-9.64-8.32-1.55-1.29-2-1.77-2-2.21S2.19 190 3.1 189c.32-.33 3.24-1.43 14.1-5.37 7.54-2.72 13.83-5 14-5 .38 0 .81.74 1.07 1.83a3.81 3.81 0 00.39 1.11c.3.36.41 6.56.13 7.57-.12.46-.33 1.46-.46 2.23a25.78 25.78 0 01-5.64 11.88 104.22 104.22 0 01-8.82 8.75c-6.65 5.85-10 8.88-14.92 13.54-1.84 1.75-2.12 1.85-3.07 1.05zM-14.75 205a103.16 103.16 0 01-8.84-7.85c-4.25-4.28-6.53-8.18-7.69-13.09-.43-1.81-.43-1.93-.44-6.72v-4.86l.44-1.26a16.64 16.64 0 016.24-8.56c2-1.37 2.89-1.77 6.59-2.93a14.3 14.3 0 016.15-.11c.5.17 1.33.41 1.85.54a19.08 19.08 0 019.93 7c.41.53.82.93.9.86a7.83 7.83 0 00.79-1 19.42 19.42 0 019.78-7.13c.78-.23 1.6-.5 1.81-.6a12.16 12.16 0 013-.23c2.8 0 3.13 0 3.14.76a71.47 71.47 0 01-4.73 6.88c-2.6 3.58-9.81 13.51-16 22.07s-11.47 15.74-11.69 16c-.48.47-.74.53-1.23.23zm23.21-22.55a.69.69 0 01-.11-.42c0-.34 14.17-20 14.8-20.52.43-.37 1.33-.3 3 .27a16.48 16.48 0 019.85 8.34c.67 1.32.82 2.05.47 2.37S9.1 182.55 8.78 182.56a.44.44 0 01-.32-.11zm58.13 284.82c-.2-.83-.88-4.08-1.52-7.23-1.13-5.62-4-18.21-5.5-24.41-.93-3.85-1-5.11-.55-5.81.36-.5 54-17.67 56.56-18.1.9-.15 6.78 1.52 28.54 8 15.08 4.51 27.62 8.33 27.87 8.51.6.43.41 2.11-.45 4.14a7.48 7.48 0 00-.68 2.2c.06.91-7 10.84-8.64 12.09-.72.58-2.22 1.92-3.32 3a50.63 50.63 0 01-22.78 12.16c-4.27 1.09-15.77 2.75-24.08 3.46-17.34 1.47-26.13 2.37-39.38 3.94-4.95.6-5.51.42-6.07-1.95zm2.1-51.12c-.82-1.8-3.86-16.23-4.78-22.72-1.7-11.72-.75-20.54 3.16-29.64 1.44-3.36 1.58-3.56 7.15-11.13l5.66-7.66 2.12-1.51a32.68 32.68 0 0119.85-6.21c4.73.16 6.63.58 13.83 3.08 2.91 1 8.24 4.8 9.83 7 .6.85 1.63 2.2 2.29 3 4.66 5.78 7.32 13.8 7.53 22.58 0 1.31.22 2.43.41 2.42a15.39 15.39 0 002.38-.63c7.65-2.47 16.77-2.41 23.77.17 1.5.55 3.12 1.08 3.55 1.16s2.28 1.19 5 3.13c4.46 3.22 4.89 3.72 4.07 4.86-.25.35-5.86 2.29-15.51 5.33-8.29 2.62-31.27 9.87-51 16.13S71.49 417 70.85 417.14c-1.19.24-1.71.02-2.16-.99zm63-8.52a1.35 1.35 0 01.31-.8c.42-.53 45.71-15 47.34-15.09 1.11-.07 2.44 1.08 4.47 4a32.36 32.36 0 015.78 24.65c-.48 2.87-1.1 4.2-2 4.29-.61 0-55-16.13-55.5-16.5a.87.87 0 01-.39-.55z" fill="#fff" opacity=".25"/></svg>